<?xml version="1.0" encoding="utf-8"?>
<!-- Generator: Adobe Illustrator 16.0.0, SVG Export Plug-In . SVG Version: 6.00 Build 0)  -->
<!DOCTYPE svg PUBLIC "-//W3C//DTD SVG 1.1//EN" "http://www.w3.org/Graphics/SVG/1.1/DTD/svg11.dtd">
<svg version="1.1" id="Layer_1" xmlns="http://www.w3.org/2000/svg" xmlns:xlink="http://www.w3.org/1999/xlink" x="0px" y="0px"
	 width="100px" height="50px" viewBox="0 0 100 50" enable-background="new 0 0 100 50" xml:space="preserve">
<g>
	<polygon points="100,29.18 100,22.82 77.145,0 62.93,0 83.93,21 0,21 0,31 83.93,31 64.93,50 79.146,50 	"/>
</g>
<g>
	<path fill="#FFFFFF" d="M39.578,21h1.388l2.181,6.076h0.028V21h1.445v10.084h-1.36l-2.209-6.062h-0.029v6.062h-1.444V21z"/>
	<path fill="#FFFFFF" d="M45.922,21h4.306v1.359h-2.861v2.96h2.492v1.359h-2.492v2.96h2.861v1.445h-4.306V21z"/>
	<path fill="#FFFFFF" d="M52.494,25.801L50.609,21h1.53l1.091,2.989L54.335,21h1.529l-1.926,4.8l2.082,5.284h-1.53l-1.26-3.4
		l-1.247,3.4h-1.529L52.494,25.801z"/>
	<path fill="#FFFFFF" d="M57.62,22.36h-1.671V21h4.787v1.359h-1.672v8.725H57.62V22.36z"/>
</g>
</svg>
