<?xml version="1.0" encoding="utf-8"?>
<!-- Generator: Adobe Illustrator 16.0.0, SVG Export Plug-In . SVG Version: 6.00 Build 0)  -->
<!DOCTYPE svg PUBLIC "-//W3C//DTD SVG 1.1//EN" "http://www.w3.org/Graphics/SVG/1.1/DTD/svg11.dtd">
<svg version="1.1" id="Layer_1" xmlns="http://www.w3.org/2000/svg" xmlns:xlink="http://www.w3.org/1999/xlink" x="0px" y="0px"
	 width="600px" height="600px" viewBox="0 0 600 600" enable-background="new 0 0 600 600" xml:space="preserve">
<g>
	<path d="M237.142,292.257c-8.798,35.937-23.531,70.295-43.409,101.967c15.743,5.736,32.5,10.616,50.042,14.435
		c31.561-32.464,55.326-64.881,71.027-97.005c18.429-37.696,25.379-74.518,20.84-111.017c-13.432-4.375-27.515-8.123-42.119-11.138
		c-16.739-3.454-33.227-5.753-49.227-6.974C248.567,217.986,246.256,254.989,237.142,292.257z"/>
	<path d="M412.395,236.637c-2.088,36.112-11.936,72.417-29.484,108.313c-11.859,24.265-27.279,48.429-46.142,72.43
		c74.641-2.757,191.159-46.042,200.314-90.371C537.083,327.009,458.987,267.166,412.395,236.637z"/>
	<path d="M125.485,359.941c35.948-54.276,51.232-116.835,42.505-174.619c-56.06,9.273-96.559,34.787-104.137,71.485
		C56.581,292.028,81.232,329.807,125.485,359.941z"/>
</g>
</svg>
