<?xml version="1.0" encoding="utf-8"?>
<!-- Generator: Adobe Illustrator 16.0.0, SVG Export Plug-In . SVG Version: 6.00 Build 0)  -->
<!DOCTYPE svg PUBLIC "-//W3C//DTD SVG 1.1//EN" "http://www.w3.org/Graphics/SVG/1.1/DTD/svg11.dtd">
<svg version="1.1" id="Layer_1" xmlns="http://www.w3.org/2000/svg" xmlns:xlink="http://www.w3.org/1999/xlink" x="0px" y="0px"
	 width="841.89px" height="595.28px" viewBox="0 0 841.89 595.28" enable-background="new 0 0 841.89 595.28" xml:space="preserve">
<rect fill="#FFFFFF" width="841.891" height="595.28"/>
<rect x="140.315" y="534.998" opacity="0.2" fill="#00AEEF" width="701.576" height="60.282"/>
<rect x="140.315" y="177.831" opacity="0.2" fill="#00AEEF" width="140.315" height="357.168"/>
<rect x="280.63" y="177.831" opacity="0.4" fill="#00AEEF" width="140.315" height="357.168"/>
<rect x="280.63" y="535" opacity="0.4" fill="#00AEEF" width="140.315" height="46.934"/>
<rect x="420.945" y="177.831" opacity="0.6" fill="#00AEEF" width="140.315" height="357.168"/>
<rect x="420.945" y="534.998" opacity="0.6" fill="#00AEEF" width="140.315" height="37.547"/>
<rect x="561.26" y="177.831" opacity="0.8" fill="#00AEEF" width="140.314" height="357.168"/>
<rect x="561.26" y="534.998" opacity="0.8" fill="#00AEEF" width="140.314" height="30.513"/>
<rect x="701.574" y="177.831" fill="#00AEEF" width="140.315" height="357.168"/>
<rect x="701.574" y="534.998" fill="#00AEEF" width="140.315" height="24.113"/>
<g>
	<g>
		<g>
			<path d="M802.903,534.409c-13.496,12.911-26.992,25.822-40.487,38.732c-0.783,0.749,0.411,1.931,1.193,1.182
				c13.496-12.911,26.992-25.822,40.487-38.732C804.88,534.842,803.686,533.66,802.903,534.409L802.903,534.409z"/>
		</g>
	</g>
	<g>
		<g>
			<path d="M762.422,496.864c13.496,12.911,26.992,25.822,40.487,38.732c0.781,0.747,1.966-0.443,1.182-1.193
				c-13.496-12.911-26.992-25.822-40.487-38.732C762.822,494.924,761.638,496.114,762.422,496.864L762.422,496.864z"/>
		</g>
	</g>
	<g>
		<g>
			<path d="M803.506,534.16c-21.268,0-42.536,0-63.805,0c-52.082,0-104.165,0-156.247,0c-65.314,0-130.628,0-195.942,0
				c-60.962,0-121.924,0-182.886,0c-39.027,0-78.054,0-117.081,0c-5.794,0-11.588,0-17.382,0c-1.084,0-1.094,1.68-0.012,1.68
				c21.268,0,42.536,0,63.804,0c52.083,0,104.166,0,156.248,0c65.313,0,130.627,0,195.941,0c60.963,0,121.925,0,182.887,0
				c39.027,0,78.054,0,117.081,0c5.794,0,11.588,0,17.382,0C804.578,535.84,804.588,534.16,803.506,534.16L803.506,534.16z"/>
		</g>
	</g>
</g>
<rect x="72.158" y="31.831" fill="none" width="726.843" height="146"/>
<text transform="matrix(1 0 0 1 72.1582 96.0894)"><tspan x="0" y="0" font-family="'HelveticaNeue-Thin'" font-size="90" letter-spacing="-3">Choosing a childcare </tspan><tspan x="0" y="60" font-family="'HelveticaNeue-UltraLight'" font-size="50" letter-spacing="-2">a customer journey</tspan></text>
<rect x="17.157" y="213.547" fill="none" width="106" height="285.736"/>
<text transform="matrix(1 0 0 1 17.1572 220.687)"><tspan x="0" y="0" font-family="'HelveticaNeue'" font-size="10">Pregnancy</tspan><tspan x="0" y="12" font-family="'HelveticaNeue-Thin'" font-size="10">During the first stages of the </tspan><tspan x="0" y="24" font-family="'HelveticaNeue-Thin'" font-size="10">pregnancy, prospective </tspan><tspan x="0" y="36" font-family="'HelveticaNeue-Thin'" font-size="10">parents come into contact </tspan><tspan x="0" y="48" font-family="'HelveticaNeue-Thin'" font-size="10">with many new experiences </tspan><tspan x="0" y="60" font-family="'HelveticaNeue-Thin'" font-size="10">and are having a lot of </tspan><tspan x="0" y="72" font-family="'HelveticaNeue-Thin'" font-size="10">questions regarding the </tspan><tspan x="0" y="84" font-family="'HelveticaNeue-Thin'" font-size="10">pregnancy. </tspan><tspan x="0" y="108" font-family="'HelveticaNeue-Thin'" font-size="10">They look for answers by </tspan><tspan x="0" y="120" font-family="'HelveticaNeue-Thin'" font-size="10">friends and family but also </tspan><tspan x="0" y="132" font-family="'HelveticaNeue-Thin'" font-size="10">online. </tspan></text>
<rect x="157.472" y="213.547" fill="none" width="106" height="285.736"/>
<text transform="matrix(1 0 0 1 157.4722 220.687)"><tspan x="0" y="0" font-family="'HelveticaNeue'" font-size="10">Buying stuff</tspan><tspan x="0" y="12" font-family="'HelveticaNeue-Thin'" font-size="10">Prospective parents need </tspan><tspan x="0" y="24" font-family="'HelveticaNeue-Thin'" font-size="10">to buy baby clothes, a crib, </tspan><tspan x="0" y="36" font-family="'HelveticaNeue-Thin'" font-size="10">highboy, maxi cosi and a lot </tspan><tspan x="0" y="48" font-family="'HelveticaNeue-Thin'" font-size="10">more.</tspan></text>
<rect x="297.788" y="213.547" fill="none" width="106" height="285.736"/>
<text transform="matrix(1 0 0 1 297.7876 220.687)"><tspan x="0" y="0" font-family="'HelveticaNeue'" font-size="10">Worrying about:</tspan><tspan x="0" y="12" font-family="'HelveticaNeue-Thin'" font-size="10">What are the </tspan><tspan x="0" y="24" font-family="'HelveticaNeue-Thin'" font-size="10">consequences of having a </tspan><tspan x="0" y="36" font-family="'HelveticaNeue-Thin'" font-size="10">baby? What about work, </tspan><tspan x="0" y="48" font-family="'HelveticaNeue-Thin'" font-size="10">relationships, income and </tspan><tspan x="0" y="60" font-family="'HelveticaNeue-Thin'" font-size="10">what about the child-birth?</tspan><tspan x="0" y="84" font-family="'HelveticaNeue-Thin'" font-size="10">Prospective parents look for </tspan><tspan x="0" y="96" font-family="'HelveticaNeue-Thin'" font-size="10">information and answers by </tspan><tspan x="0" y="108" font-family="'HelveticaNeue-Thin'" font-size="10">friends and family</tspan></text>
<rect x="438.102" y="213.547" fill="none" width="106" height="285.736"/>
<text transform="matrix(1 0 0 1 438.1016 220.687)"><tspan x="0" y="0" font-family="'HelveticaNeue'" font-size="10">Looking for information </tspan><tspan x="0" y="12" font-family="'HelveticaNeue'" font-size="10">and things that need to </tspan><tspan x="0" y="24" font-family="'HelveticaNeue'" font-size="10">be arranged</tspan><tspan x="0" y="36" font-family="'HelveticaNeue-Thin'" font-size="10">- Pregnancy leave</tspan><tspan x="0" y="48" font-family="'HelveticaNeue-Thin'" font-size="10">- Childcare?</tspan><tspan x="0" y="60" font-family="'HelveticaNeue-Thin'" font-size="10">- Grandparents? </tspan></text>
<rect x="578.416" y="213.547" fill="none" width="106" height="285.736"/>
<text transform="matrix(1 0 0 1 578.416 220.687)"><tspan x="0" y="0" font-family="'HelveticaNeue'" font-size="10">Making a selection</tspan><tspan x="0" y="12" font-family="'HelveticaNeue-Thin'" font-size="10">In general, searches for a </tspan><tspan x="0" y="24" font-family="'HelveticaNeue-Thin'" font-size="10">childcare are around the </tspan><tspan x="0" y="36" font-family="'HelveticaNeue-Thin'" font-size="10">fourth month of the </tspan><tspan x="0" y="48" font-family="'HelveticaNeue-Thin'" font-size="10">pregnancy.</tspan><tspan x="0" y="72" font-family="'HelveticaNeue-Thin'" font-size="10">Parents are asking </tspan><tspan x="0" y="84" font-family="'HelveticaNeue-Thin'" font-size="10">themself:</tspan><tspan x="0" y="108" font-family="'HelveticaNeue-Thin'" font-size="10">- Is it safe</tspan><tspan x="0" y="120" font-family="'HelveticaNeue-Thin'" font-size="10">- How much does it cost</tspan><tspan x="0" y="132" font-family="'HelveticaNeue-Thin'" font-size="10">- What are the experiences </tspan><tspan x="0" y="144" font-family="'HelveticaNeue-Thin'" font-size="10">of friends and family?</tspan><tspan x="0" y="168" font-family="'HelveticaNeue-Thin'" font-size="10">But also parents want to </tspan><tspan x="0" y="180" font-family="'HelveticaNeue-Thin'" font-size="10">know what a good </tspan><tspan x="0" y="192" font-family="'HelveticaNeue-Thin'" font-size="10">day-care is. So they look </tspan><tspan x="0" y="204" font-family="'HelveticaNeue-Thin'" font-size="10">online and compare </tspan><tspan x="0" y="216" font-family="'HelveticaNeue-Thin'" font-size="10">crèches.</tspan><tspan x="0" y="240" font-family="'HelveticaNeue-Thin'" font-size="10">They also go to visit the </tspan><tspan x="0" y="252" font-family="'HelveticaNeue-Thin'" font-size="10">childcare, where a tour is </tspan><tspan x="0" y="264" font-family="'HelveticaNeue-Thin'" font-size="10">often decisive.</tspan></text>
<rect x="718.73" y="213.547" fill="none" width="106" height="285.736"/>
<text transform="matrix(1 0 0 1 718.7305 220.687)"><tspan x="0" y="0" font-family="'HelveticaNeue'" font-size="10">The final decision </tspan><tspan x="0" y="12" font-family="'HelveticaNeue-Thin'" font-size="10">Main selection criteria are:</tspan><tspan x="0" y="24" font-family="'HelveticaNeue-Thin'" font-size="10">- Information about the </tspan><tspan x="0" y="36" font-family="'HelveticaNeue-Thin'" font-size="10">childcare is easy to find</tspan><tspan x="0" y="48" font-family="'HelveticaNeue-Thin'" font-size="10">- The childcare pays visible </tspan><tspan x="0" y="60" font-family="'HelveticaNeue-Thin'" font-size="10">attention to babies</tspan><tspan x="0" y="72" font-family="'HelveticaNeue-Thin'" font-size="10">- The overall impression is </tspan><tspan x="0" y="84" font-family="'HelveticaNeue-Thin'" font-size="10">good</tspan><tspan x="0" y="96" font-family="'HelveticaNeue-Thin'" font-size="10">- The location is good</tspan><tspan x="0" y="108" font-family="'HelveticaNeue-Thin'" font-size="10">- News, photos and movies </tspan><tspan x="0" y="120" font-family="'HelveticaNeue-Thin'" font-size="10">on the website are </tspan><tspan x="0" y="132" font-family="'HelveticaNeue-Thin'" font-size="10">appealing</tspan></text>
<rect x="17.157" y="545.001" fill="none" width="106" height="22.788"/>
<text transform="matrix(1 0 0 1 17.1572 552.1406)" font-family="'HelveticaNeue-Thin'" font-size="10">Pregnancy preparations</text>
<rect x="157.472" y="545.001" fill="none" width="106" height="22.788"/>
<text transform="matrix(1 0 0 1 157.4722 552.1406)" font-family="'HelveticaNeue-Thin'" font-size="10">Generic preparations</text>
<rect x="297.788" y="545.001" fill="none" width="106" height="22.788"/>
<text transform="matrix(1 0 0 1 297.7876 552.1406)" font-family="'HelveticaNeue-Thin'" font-size="10">Reflection</text>
<rect x="438.104" y="545.001" fill="none" width="106" height="22.788"/>
<text transform="matrix(1 0 0 1 438.1035 552.1406)" font-family="'HelveticaNeue-Thin'" font-size="10">Logistical preperations</text>
<rect x="578.417" y="545.001" fill="none" width="106" height="22.788"/>
<text transform="matrix(1 0 0 1 578.416 552.1406)" font-family="'HelveticaNeue-Thin'" font-size="10">Orientation</text>
<rect x="718.731" y="545.001" fill="none" width="106" height="22.788"/>
<text transform="matrix(1 0 0 1 718.7305 552.1406)" font-family="'HelveticaNeue-Thin'" font-size="10">Decision</text>
</svg>
