<?xml version="1.0" encoding="utf-8"?>
<!-- Generator: Adobe Illustrator 16.0.0, SVG Export Plug-In . SVG Version: 6.00 Build 0)  -->
<!DOCTYPE svg PUBLIC "-//W3C//DTD SVG 1.1//EN" "http://www.w3.org/Graphics/SVG/1.1/DTD/svg11.dtd">
<svg version="1.1" id="Layer_1" xmlns="http://www.w3.org/2000/svg" xmlns:xlink="http://www.w3.org/1999/xlink" x="0px" y="0px"
	 width="1200px" height="900px" viewBox="0 0 1200 900" enable-background="new 0 0 1200 900" xml:space="preserve">
<g>
	<g>
		<g>
			<g>
				<g>
					<path fill="#1D1D1B" d="M361.013,623.086h133.579c-5.308-2.298-10.562-4.782-15.764-7.432
						c-31.046-15.864-59.058-37.98-81.838-64.527L361.013,623.086z"/>
				</g>
			</g>
			<g>
				<g>
					<path fill="#1D1D1B" d="M706.691,623.086h133.575l-35.972-71.959c-22.784,26.547-50.794,48.663-81.841,64.527
						C717.256,618.304,711.997,620.788,706.691,623.086z"/>
				</g>
			</g>
			<g>
				<g>
					<path fill="#1D1D1B" d="M600.643,237.213c17.939,0,35.357,3.344,51.604,9.828l-51.604-103.211l-51.605,103.205
						C565.287,240.557,582.703,237.213,600.643,237.213z"/>
				</g>
			</g>
			<g>
				<g>
					<path fill="#1D1D1B" d="M407.637,529.835c47.061,59.345,117.028,93.251,193.005,93.251c75.977,0,145.944-33.906,193.005-93.251
						l-58.319-116.644c-16.076,59.3-70.367,103.053-134.686,103.053s-118.606-43.753-134.68-103.047L407.637,529.835z"/>
				</g>
			</g>
		</g>
	</g>
	<g>
		<path fill="#1D1D1B" d="M361.052,641.163h15.226l23.865,68.648h0.304v-68.648h15.772V755.13h-14.844l-24.247-68.495h-0.299v68.495
			h-15.777V641.163z"/>
		<path fill="#1D1D1B" d="M433.198,641.163h15.771V755.13h-15.771V641.163z"/>
		<path fill="#1D1D1B" d="M464.464,668.026c0.101-9.269,2.957-16.252,8.562-20.927c5.259-4.581,11.245-6.866,17.966-6.866
			c6.821,0,12.891,2.285,18.196,6.866c5.353,4.686,8.135,11.671,8.339,20.95v5.784H501.75v-5.808
			c-0.104-3.98-1.118-6.937-3.05-8.879c-2.089-1.779-4.658-2.675-7.709-2.675c-2.896,0-5.387,0.896-7.473,2.662
			c-2.187,1.942-3.276,4.889-3.276,8.856v60.312c0,3.863,1.09,6.76,3.276,8.689c2.086,1.885,4.576,2.828,7.473,2.828
			c3.051,0,5.62-0.943,7.709-2.828c1.932-1.93,2.946-4.826,3.05-8.702v-21.471h-12.587v-14.368h28.363v35.827
			c-0.204,9.269-2.986,16.183-8.339,20.762c-5.305,4.675-11.375,7.021-18.196,7.021c-6.721,0-12.707-2.346-17.966-7.021
			c-5.604-4.568-8.461-11.493-8.562-20.75V668.026z"/>
		<path fill="#1D1D1B" d="M533.563,641.163h15.772v48.864h19.638v-48.864h15.775V755.13h-15.775v-50.736h-19.638v50.736h-15.772
			V641.163z"/>
		<path fill="#1D1D1B" d="M612.116,656.473h-18.275v-15.31h52.323v15.31h-18.267v98.657h-15.781V656.473z"/>
		<path fill="#1D1D1B" d="M706.056,673.951h-15.769v-3.688c0-3.968-0.831-7.29-2.492-9.951c-1.713-2.462-4.581-3.732-8.608-3.84
			c-4.216,0.107-7.066,1.591-8.521,4.466c-1.467,2.872-2.197,6.287-2.197,10.246c-0.099,4.168,0.431,7.335,1.59,9.468
			c1.107,2.237,3.574,4.146,7.396,5.711l12.073,5.006c6.795,2.555,11.329,6.276,13.59,11.177c2.062,5.064,3.05,11.742,2.938,20.033
			c0,9.855-1.961,17.806-5.896,23.859c-4.133,6.313-11.246,9.516-21.333,9.622c-7.768-0.106-14.115-2.697-19.061-7.796
			c-5.188-4.994-7.844-11.402-7.938-19.21v-6.088h15.773v5.182c0,2.968,0.885,5.629,2.657,7.985
			c1.666,2.448,4.522,3.687,8.567,3.687c5.265,0,8.578-1.59,9.934-4.783c0.812-1.507,1.271-3.285,1.367-5.311
			c0.104-2.038,0.159-4.333,0.159-6.89c0-5.841-0.507-9.823-1.52-11.966c-1.256-2.144-3.805-3.909-7.639-5.324l-11.271-4.768
			c-6.607-2.921-11.146-6.784-13.613-11.589c-2.474-4.793-3.663-10.706-3.557-17.748c0-8.869,2.261-16.3,6.807-22.294
			c4.534-5.854,11.281-8.811,20.255-8.915c8.063,0.104,14.465,2.743,19.203,7.937c4.635,5.206,7.008,11.107,7.103,17.701V673.951z"
			/>
		<path fill="#1D1D1B" d="M719.829,641.163h15.773v51.972h0.266l23.102-51.972h15.835l-21.519,45.647l25.604,68.319h-16.806
			l-17.932-50.559l-8.551,16.475v34.084h-15.773V641.163z"/>
		<path fill="#1D1D1B" d="M802.762,706.999l-21.739-65.836h16.735l12.718,45.235h0.301l12.726-45.235h16.735l-21.699,65.821v48.146
			h-15.776V706.999z"/>
	</g>
</g>
</svg>
